<svg xmlns="http://www.w3.org/2000/svg" width="800" height="500" viewBox="0 0 800 500">
  <defs>
    <linearGradient id="bg" x1="0%" y1="0%" x2="100%" y2="100%">
      <stop offset="0%" stop-color="#050d1e"/>
      <stop offset="100%" stop-color="#2A5CFF22"/>
    </linearGradient>
    <radialGradient id="o1" cx="20%" cy="30%">
      <stop offset="0%" stop-color="#00C2FF40"/>
      <stop offset="100%" stop-color="transparent"/>
    </radialGradient>
    <radialGradient id="o2" cx="80%" cy="70%">
      <stop offset="0%" stop-color="#2A5CFF28"/>
      <stop offset="100%" stop-color="transparent"/>
    </radialGradient>
    <pattern id="grid" width="52" height="52" patternUnits="userSpaceOnUse">
      <path d="M52 0L0 0 0 52" fill="none" stroke="#00C2FF10" stroke-width="1"/>
    </pattern>
  </defs>
  <rect width="800" height="500" fill="url(#bg)"/>
  <rect width="800" height="500" fill="url(#grid)"/>
  <ellipse cx="144" cy="140" rx="200" ry="180" fill="url(#o1)"/>
  <ellipse cx="656" cy="360" rx="170" ry="160" fill="url(#o2)"/>
  <rect x="0" y="0" width="3" height="500" fill="#00C2FF"/>
  <path d="M120 380 C 200 280, 300 460, 400 320 S 600 200, 680 340" fill="none" stroke="#2A5CFF40" stroke-width="2"/>
  <circle cx="400" cy="320" r="5" fill="#00C2FF"/>
  <circle cx="680" cy="340" r="4" fill="#2A5CFF"/>
  <text x="400" y="230" font-family="system-ui,sans-serif" font-size="32" font-weight="800" fill="#F8FAFF" text-anchor="middle">SymFonos</text>
  <text x="400" y="294" font-family="system-ui,sans-serif" font-size="14" fill="#2A5CFF" text-anchor="middle" opacity="0.8">Three.js · WebGL · RK4</text>
  <rect x="345" y="442" width="110" height="26" rx="13" fill="#00C2FF22" stroke="#00C2FF55" stroke-width="1"/>
  <text x="400" y="460" font-family="monospace" font-size="11" font-weight="600" fill="#00C2FF" text-anchor="middle">Web</text>
</svg>