<svg xmlns="http://www.w3.org/2000/svg" width="600" height="400" viewBox="0 0 600 400">
  <defs>
    <linearGradient id="bg" x1="0%" y1="0%" x2="100%" y2="100%">
      <stop offset="0%" stop-color="#050d1e"/>
      <stop offset="100%" stop-color="#00C2FF22"/>
    </linearGradient>
    <radialGradient id="o1" cx="20%" cy="30%">
      <stop offset="0%" stop-color="#2A5CFF40"/>
      <stop offset="100%" stop-color="transparent"/>
    </radialGradient>
    <radialGradient id="o2" cx="80%" cy="70%">
      <stop offset="0%" stop-color="#00C2FF28"/>
      <stop offset="100%" stop-color="transparent"/>
    </radialGradient>
    <pattern id="grid" width="52" height="52" patternUnits="userSpaceOnUse">
      <path d="M52 0L0 0 0 52" fill="none" stroke="#00C2FF10" stroke-width="1"/>
    </pattern>
  </defs>
  <rect width="600" height="400" fill="url(#bg)"/>
  <rect width="600" height="400" fill="url(#grid)"/>
  <ellipse cx="108" cy="112" rx="200" ry="180" fill="url(#o1)"/>
  <ellipse cx="491" cy="288" rx="170" ry="160" fill="url(#o2)"/>
  <rect x="0" y="0" width="3" height="400" fill="#00C2FF"/>
  <rect x="90" y="260" width="30" height="60" fill="#00C2FF33"/>
  <rect x="150" y="220" width="30" height="100" fill="#2A5CFF40"/>
  <rect x="210" y="180" width="30" height="140" fill="#00C2FF55"/>
  <rect x="270" y="240" width="30" height="80" fill="#2A5CFF40"/>
  <text x="40" y="360" font-family="monospace" font-size="60" fill="#00C2FF08" font-style="italic">+</text>
  <text x="510" y="80" font-family="monospace" font-size="50" fill="#2A5CFF08" font-style="italic">μ</text>
  <text x="400" y="220" font-family="system-ui,sans-serif" font-size="28" font-weight="800" fill="#F8FAFF" text-anchor="middle">Bioestadística</text>
  <text x="400" y="256" font-family="system-ui,sans-serif" font-size="14" fill="#00C2FF" text-anchor="middle" opacity="0.8">Salud · Jamovi · JASP · Bayes</text>
  <rect x="245" y="342" width="110" height="26" rx="13" fill="#00C2FF22" stroke="#00C2FF55" stroke-width="1"/>
  <text x="400" y="360" font-family="monospace" font-size="11" font-weight="600" fill="#00C2FF" text-anchor="middle">Curso</text>
</svg>