<svg xmlns="http://www.w3.org/2000/svg" width="600" height="400" viewBox="0 0 600 400">
  <defs>
    <linearGradient id="bg" x1="0%" y1="0%" x2="100%" y2="100%">
      <stop offset="0%" stop-color="#050d1e"/>
      <stop offset="100%" stop-color="#2A5CFF22"/>
    </linearGradient>
    <radialGradient id="o1" cx="20%" cy="30%">
      <stop offset="0%" stop-color="#2A5CFF40"/>
      <stop offset="100%" stop-color="transparent"/>
    </radialGradient>
    <radialGradient id="o2" cx="80%" cy="70%">
      <stop offset="0%" stop-color="#00C2FF28"/>
      <stop offset="100%" stop-color="transparent"/>
    </radialGradient>
    <pattern id="grid" width="52" height="52" patternUnits="userSpaceOnUse">
      <path d="M52 0L0 0 0 52" fill="none" stroke="#2A5CFF10" stroke-width="1"/>
    </pattern>
  </defs>
  <rect width="600" height="400" fill="url(#bg)"/>
  <rect width="600" height="400" fill="url(#grid)"/>
  <ellipse cx="108" cy="112" rx="200" ry="180" fill="url(#o1)"/>
  <ellipse cx="491" cy="288" rx="170" ry="160" fill="url(#o2)"/>
  <rect x="0" y="0" width="3" height="400" fill="#2A5CFF"/>
  <!-- densidades desplazándose: media, escala y asimetría cambiantes -->
  <path d="M40 300 Q90 300 110 220 Q130 140 150 220 Q170 300 220 300" fill="none" stroke="#2A5CFF" stroke-width="2.5" opacity="0.85"/>
  <path d="M90 300 Q150 300 180 190 Q205 100 245 200 Q285 300 340 300" fill="none" stroke="#00C2FF" stroke-width="2.5" opacity="0.7"/>
  <path d="M160 300 Q230 300 270 170 Q300 80 370 210 Q430 300 500 300" fill="none" stroke="#F8FAFF" stroke-width="2" opacity="0.35"/>
  <text x="510" y="80" font-family="monospace" font-size="50" fill="#00C2FF08" font-style="italic">μ σ ν τ</text>
  <text x="400" y="168" font-family="system-ui,sans-serif" font-size="34" font-weight="800" fill="#F8FAFF" text-anchor="middle">GAMLSS</text>
  <text x="400" y="204" font-family="system-ui,sans-serif" font-size="20" font-weight="600" fill="#F8FAFF" text-anchor="middle" opacity="0.9">Regresión Distribucional</text>
  <text x="400" y="252" font-family="monospace" font-size="15" fill="#00C2FF" text-anchor="middle" opacity="0.85">μ · σ · ν · τ</text>
  <text x="400" y="316" font-family="system-ui,sans-serif" font-size="14" fill="#00C2FF" text-anchor="middle" opacity="0.8">R · P-splines · IFRS 9 · Seguros</text>
  <rect x="345" y="342" width="110" height="26" rx="13" fill="#2A5CFF22" stroke="#2A5CFF55" stroke-width="1"/>
  <text x="400" y="360" font-family="monospace" font-size="11" font-weight="600" fill="#2A5CFF" text-anchor="middle">Curso</text>
</svg>
