<svg xmlns="http://www.w3.org/2000/svg" width="600" height="400" viewBox="0 0 600 400">
  <defs>
    <linearGradient id="bg" x1="0%" y1="0%" x2="100%" y2="100%">
      <stop offset="0%" stop-color="#0d0721"/>
      <stop offset="100%" stop-color="#7C3AED22"/>
    </linearGradient>
    <radialGradient id="o1" cx="20%" cy="30%">
      <stop offset="0%" stop-color="#7C3AED40"/>
      <stop offset="100%" stop-color="transparent"/>
    </radialGradient>
    <radialGradient id="o2" cx="80%" cy="70%">
      <stop offset="0%" stop-color="#A78BFA28"/>
      <stop offset="100%" stop-color="transparent"/>
    </radialGradient>
    <pattern id="grid" width="52" height="52" patternUnits="userSpaceOnUse">
      <path d="M52 0L0 0 0 52" fill="none" stroke="#7C3AED10" stroke-width="1"/>
    </pattern>
  </defs>
  <rect width="600" height="400" fill="url(#bg)"/>
  <rect width="600" height="400" fill="url(#grid)"/>
  <ellipse cx="108" cy="112" rx="200" ry="180" fill="url(#o1)"/>
  <ellipse cx="491" cy="288" rx="170" ry="160" fill="url(#o2)"/>
  <rect x="0" y="0" width="3" height="400" fill="#7C3AED"/>
  <path d="M60 300 L100 220 L150 240 L130 320 Z" fill="#7C3AED10"/>
  <path d="M470 100 L510 60 L540 110 L500 150 Z" fill="#A78BFA10"/>
  <circle cx="230" cy="150" r="4" fill="#A78BFA55"/>
  <circle cx="330" cy="120" r="4" fill="#7C3AED55"/>
  <circle cx="290" cy="180" r="4" fill="#A78BFA55"/>
  <line x1="230" y1="150" x2="330" y2="120" stroke="#7C3AED40" stroke-width="1.5"/>
  <line x1="330" y1="120" x2="290" y2="180" stroke="#7C3AED40" stroke-width="1.5"/>
  <line x1="290" y1="180" x2="230" y2="150" stroke="#7C3AED40" stroke-width="1.5"/>
  <text x="400" y="208" font-family="system-ui,sans-serif" font-size="30" font-weight="800" fill="#F8FAFF" text-anchor="middle">Obsidian</text>
  <text x="400" y="252" font-family="system-ui,sans-serif" font-size="26" font-weight="800" fill="#F8FAFF" text-anchor="middle">Despachos Jurídicos</text>
  <text x="400" y="316" font-family="system-ui,sans-serif" font-size="14" fill="#A78BFA" text-anchor="middle" opacity="0.8">Markdown · Dataview · IA Local</text>
  <rect x="245" y="342" width="110" height="26" rx="13" fill="#7C3AED22" stroke="#7C3AED55" stroke-width="1"/>
  <text x="400" y="360" font-family="monospace" font-size="11" font-weight="600" fill="#A78BFA" text-anchor="middle">Curso</text>
</svg>
